<svg width="1148" height="34" viewBox="0 0 1148 34" fill="none" xmlns="http://www.w3.org/2000/svg">
<path d="M1120.3 0C1105.9 0 1105.9 14 1091.6 14C1077.3 14 1077.2 0 1062.9 0C1048.6 0 1048.5 14 1034.2 14C1019.8 14 1019.8 0 1005.4 0C991 0 991 14 976.7 14C962.3 14 962.3 0 948 0C933.6 0 933.6 14 919.3 14C905 14 904.6 0 890.3 0C875.9 0 875.9 14 861.6 14C847.3 14 847.1 0 832.8 0C818.4 0 818.4 14 804.1 14C789.7 14 789.7 0 775.3 0C760.9 0 760.9 14 746.6 14C732.2 14 732.2 0 717.9 0C703.6 0 703.4 14 689 14C674.6 14 674.6 0 660.3 0C645.9 0 645.9 14 631.6 14C617.2 14 617.2 0 602.8 0C588.4 0 588.4 14 574.1 14C559.7 14 559.7 0 545.4 0C531 0 531 14 516.7 14C502.3 14 502.3 0 488 0C473.6 0 473.6 14 459.2 14C444.8 14 444.8 0 430.4 0C416 0 416 14 401.6 14C387.2 14 387.2 0 372.8 0C358.4 0 358.4 14 344 14C329.6 14 329.6 0 315.2 0C300.8 0 300.8 14 286.4 14C272 14 272 0 257.6 0C243.2 0 243.2 14 228.9 14C214.5 14 214.5 0 200.1 0C185.7 0 185.7 14 171.3 14C156.9 14 156.9 0 142.5 0C128.1 0 128.1 14 113.7 14C99.3 14 99.3 0 84.9 0C70.9 0 70.9 14 56.5 14C42.1 14 42.1 0 27.8 0C13.5 0 14.4 14 0 14V34H1148V14C1133.6 14 1134.6 0 1120.3 0Z" fill="white"/>
</svg>
