<svg width="1148" height="34" fill="none" xmlns="http://www.w3.org/2000/svg"><path d="M1120.3 0c-14.4 0-14.4 14-28.7 14-14.3 0-14.4-14-28.7-14-14.3 0-14.4 14-28.7 14-14.4 0-14.4-14-28.8-14S991 14 976.7 14C962.3 14 962.3 0 948 0c-14.4 0-14.4 14-28.7 14-14.3 0-14.7-14-29-14-14.4 0-14.4 14-28.7 14-14.3 0-14.5-14-28.8-14-14.4 0-14.4 14-28.7 14-14.4 0-14.4-14-28.8-14s-14.4 14-28.7 14c-14.4 0-14.4-14-28.7-14-14.3 0-14.5 14-28.9 14-14.4 0-14.4-14-28.7-14-14.4 0-14.4 14-28.7 14-14.4 0-14.4-14-28.8-14s-14.4 14-28.7 14c-14.4 0-14.4-14-28.7-14C531 0 531 14 516.7 14 502.3 14 502.3 0 488 0c-14.4 0-14.4 14-28.8 14S444.8 0 430.4 0 416 14 401.6 14 387.2 0 372.8 0 358.4 14 344 14 329.6 0 315.2 0s-14.4 14-28.8 14S272 0 257.6 0s-14.4 14-28.7 14c-14.4 0-14.4-14-28.8-14s-14.4 14-28.8 14-14.4-14-28.8-14-14.4 14-28.8 14S99.3 0 84.9 0c-14 0-14 14-28.4 14C42.1 14 42.1 0 27.8 0 13.5 0 14.4 14 0 14v20h1148V14c-14.4 0-13.4-14-27.7-14z" fill="#fff"/></svg>